<svg xmlns="http://www.w3.org/2000/svg" viewBox="0 0 640 400" width="640" height="400" role="img" preserveAspectRatio="xMidYMid slice">
<defs>
<linearGradient id="sky" x1="0" y1="0" x2="0" y2="1"><stop offset="0" stop-color="#dceaf7"/><stop offset="1" stop-color="#f6fafd"/></linearGradient>
<linearGradient id="pv" x1="0" y1="0" x2="1" y2="1"><stop offset="0" stop-color="#1e5382"/><stop offset="1" stop-color="#12395c"/></linearGradient>
</defs>
<rect width="640" height="400" fill="url(#sky)"/><rect width="640" height="322" fill="#eef4fa"/><rect x="0" y="322" width="640" height="78" fill="#e3ebf3"/><rect x="0" y="314" width="640" height="8" fill="#cfdbe7" opacity=".55"/><line x1="0" y1="96" x2="640" y2="96" stroke="#cfdbe7" stroke-width="1" opacity=".3"/><line x1="0" y1="200" x2="640" y2="200" stroke="#cfdbe7" stroke-width="1" opacity=".3"/><ellipse cx="300" cy="330" rx="190" ry="12" fill="#aebecf" opacity=".28"/><rect x="435" y="135" width="86" height="118" rx="8" fill="#0A2540" opacity=".13"/><rect x="430" y="128" width="86" height="118" rx="8" fill="#f4f8fb" stroke="#0A2540" stroke-width="3"/><path d="M430 238 v-102 a8 8 0 0 1 8 -8 h29 l-29 118 z" fill="#dceaf7" opacity=".35"/><rect x="442" y="146" width="62" height="14" rx="3" fill="#cfdbe7"/><rect x="442" y="170" width="62" height="14" rx="3" fill="#cfdbe7"/><rect x="442" y="194" width="62" height="14" rx="3" fill="#cfdbe7"/><rect x="442" y="218" width="62" height="14" rx="3" fill="#cfdbe7"/><rect x="446" y="148" width="8" height="10" rx="2" fill="#16395c"/><rect x="460" y="148" width="8" height="10" rx="2" fill="#16395c"/><rect x="474" y="148" width="8" height="10" rx="2" fill="#16395c"/><rect x="488" y="148" width="8" height="10" rx="2" fill="#16395c"/><rect x="446" y="172" width="8" height="10" rx="2" fill="#16395c"/><rect x="460" y="172" width="8" height="10" rx="2" fill="#16395c"/><rect x="474" y="172" width="8" height="10" rx="2" fill="#16395c"/><rect x="488" y="172" width="8" height="10" rx="2" fill="#16395c"/><rect x="446" y="196" width="8" height="10" rx="2" fill="#16395c"/><rect x="460" y="196" width="8" height="10" rx="2" fill="#16395c"/><rect x="474" y="196" width="8" height="10" rx="2" fill="#16395c"/><rect x="488" y="196" width="8" height="10" rx="2" fill="#16395c"/><rect x="446" y="220" width="8" height="10" rx="2" fill="#16395c"/><rect x="460" y="220" width="8" height="10" rx="2" fill="#16395c"/><rect x="474" y="220" width="8" height="10" rx="2" fill="#16395c"/><rect x="488" y="220" width="8" height="10" rx="2" fill="#16395c"/><rect x="183" y="103" width="168" height="216" rx="18" fill="#0A2540" opacity=".13"/><rect x="178" y="96" width="168" height="216" rx="18" fill="#ffffff" stroke="#0A2540" stroke-width="3"/><path d="M178 294 v-180 a18 18 0 0 1 18 -18 h57 l-57 216 z" fill="#dceaf7" opacity=".35"/><rect x="200" y="122" width="124" height="86" rx="8" fill="#16395c"/><rect x="212" y="140" width="14" height="50" rx="3" fill="#ffb020"/><rect x="234" y="140" width="14" height="50" rx="3" fill="#ffb020"/><rect x="256" y="140" width="14" height="50" rx="3" fill="#ffb020"/><rect x="278" y="140" width="14" height="50" rx="3" fill="#31527a"/><rect x="300" y="140" width="14" height="50" rx="3" fill="#31527a"/><rect x="200" y="228" width="124" height="10" rx="5" fill="#cfdbe7"/><rect x="200" y="248" width="78" height="10" rx="5" fill="#cfdbe7" opacity=".6"/><circle cx="310" cy="282" r="6" fill="#1f9d55"/><circle cx="310" cy="282" r="12" fill="#1f9d55" opacity=".22"/><path d="M346 190 h56 q12 0 12 12 v-28" stroke="#ffb020" stroke-width="4" fill="none" stroke-linecap="round" stroke-dasharray="8 9"/><circle cx="566" cy="62" r="38" fill="#ffb020" opacity=".12"/><circle cx="566" cy="62" r="22" fill="#ffb020"/><line x1="596.5" y1="74.6" x2="607.6" y2="79.2" stroke="#ffb020" stroke-width="5" stroke-linecap="round" opacity=".6"/><line x1="578.6" y1="92.5" x2="583.2" y2="103.6" stroke="#ffb020" stroke-width="5" stroke-linecap="round" opacity=".6"/><line x1="553.4" y1="92.5" x2="548.8" y2="103.6" stroke="#ffb020" stroke-width="5" stroke-linecap="round" opacity=".6"/><line x1="535.5" y1="74.6" x2="524.4" y2="79.2" stroke="#ffb020" stroke-width="5" stroke-linecap="round" opacity=".6"/><line x1="535.5" y1="49.4" x2="524.4" y2="44.8" stroke="#ffb020" stroke-width="5" stroke-linecap="round" opacity=".6"/><line x1="553.4" y1="31.5" x2="548.8" y2="20.4" stroke="#ffb020" stroke-width="5" stroke-linecap="round" opacity=".6"/><line x1="578.6" y1="31.5" x2="583.2" y2="20.4" stroke="#ffb020" stroke-width="5" stroke-linecap="round" opacity=".6"/><line x1="596.5" y1="49.4" x2="607.6" y2="44.8" stroke="#ffb020" stroke-width="5" stroke-linecap="round" opacity=".6"/></svg>
