<svg xmlns="http://www.w3.org/2000/svg" viewBox="0 0 640 400" width="640" height="400" role="img" preserveAspectRatio="xMidYMid slice">
<defs>
<linearGradient id="sky" x1="0" y1="0" x2="0" y2="1"><stop offset="0" stop-color="#dceaf7"/><stop offset="1" stop-color="#f6fafd"/></linearGradient>
<linearGradient id="pv" x1="0" y1="0" x2="1" y2="1"><stop offset="0" stop-color="#1e5382"/><stop offset="1" stop-color="#12395c"/></linearGradient>
</defs>
<rect width="640" height="400" fill="url(#sky)"/><rect width="640" height="322" fill="#e8eff6"/><rect x="0" y="322" width="640" height="78" fill="#e3ebf3"/><rect x="0" y="314" width="640" height="8" fill="#cfdbe7" opacity=".55"/><rect x="0" y="0" width="640" height="26" fill="#16395c" opacity=".85"/><rect x="574" y="26" width="14" height="296" rx="4" fill="#cfdbe7"/><ellipse cx="360" cy="330" rx="220" ry="13" fill="#aebecf" opacity=".28"/><path d="M186 314 v-34 q0 -14 14 -18 l38 -10 28 -38 q6 -8 18 -8 h96 q12 0 18 8 l28 38 38 10 q14 4 14 18 v34 z" fill="#16395c"/><path d="M262 216 h94 l22 34 h-138 z" fill="#dceaf7" opacity=".85"/><circle cx="242" cy="314" r="30" fill="#0A2540"/><circle cx="242" cy="314" r="13" fill="#cfdbe7"/><circle cx="414" cy="314" r="30" fill="#0A2540"/><circle cx="414" cy="314" r="13" fill="#cfdbe7"/><rect x="186" y="266" width="34" height="12" rx="6" fill="#ffb020"/><rect x="499" y="115" width="96" height="150" rx="16" fill="#0A2540" opacity=".13"/><rect x="494" y="108" width="96" height="150" rx="16" fill="#ffffff" stroke="#0A2540" stroke-width="3"/><path d="M494 242 v-118 a16 16 0 0 1 16 -16 h33 l-33 150 z" fill="#dceaf7" opacity=".35"/><rect x="514" y="130" width="56" height="42" rx="6" fill="#16395c"/><circle cx="542" cy="210" r="6" fill="#1f9d55"/><circle cx="542" cy="210" r="12" fill="#1f9d55" opacity=".22"/><path d="M494 214 q-48 26 -60 62 q-8 24 -30 26" stroke="#0A2540" stroke-width="9" fill="none" stroke-linecap="round"/><path d="M494 214 q-48 26 -60 62 q-8 24 -30 26" stroke="#ffb020" stroke-width="4" fill="none" stroke-linecap="round" stroke-dasharray="7 10"/><circle cx="96" cy="66" r="38" fill="#ffb020" opacity=".12"/><circle cx="96" cy="66" r="22" fill="#ffb020"/><line x1="126.5" y1="78.6" x2="137.6" y2="83.2" stroke="#ffb020" stroke-width="5" stroke-linecap="round" opacity=".6"/><line x1="108.6" y1="96.5" x2="113.2" y2="107.6" stroke="#ffb020" stroke-width="5" stroke-linecap="round" opacity=".6"/><line x1="83.4" y1="96.5" x2="78.8" y2="107.6" stroke="#ffb020" stroke-width="5" stroke-linecap="round" opacity=".6"/><line x1="65.5" y1="78.6" x2="54.4" y2="83.2" stroke="#ffb020" stroke-width="5" stroke-linecap="round" opacity=".6"/><line x1="65.5" y1="53.4" x2="54.4" y2="48.8" stroke="#ffb020" stroke-width="5" stroke-linecap="round" opacity=".6"/><line x1="83.4" y1="35.5" x2="78.8" y2="24.4" stroke="#ffb020" stroke-width="5" stroke-linecap="round" opacity=".6"/><line x1="108.6" y1="35.5" x2="113.2" y2="24.4" stroke="#ffb020" stroke-width="5" stroke-linecap="round" opacity=".6"/><line x1="126.5" y1="53.4" x2="137.6" y2="48.8" stroke="#ffb020" stroke-width="5" stroke-linecap="round" opacity=".6"/></svg>
