<svg xmlns="http://www.w3.org/2000/svg" viewBox="0 0 640 400" width="640" height="400" role="img" preserveAspectRatio="xMidYMid slice">
<defs>
<linearGradient id="sky" x1="0" y1="0" x2="0" y2="1"><stop offset="0" stop-color="#dceaf7"/><stop offset="1" stop-color="#f6fafd"/></linearGradient>
<linearGradient id="pv" x1="0" y1="0" x2="1" y2="1"><stop offset="0" stop-color="#1e5382"/><stop offset="1" stop-color="#12395c"/></linearGradient>
</defs>
<rect width="640" height="400" fill="url(#sky)"/><rect width="640" height="322" fill="#eef4fa"/><rect x="0" y="322" width="640" height="78" fill="#e3ebf3"/><rect x="0" y="314" width="640" height="8" fill="#cfdbe7" opacity=".55"/><line x1="0" y1="96" x2="640" y2="96" stroke="#cfdbe7" stroke-width="1" opacity=".3"/><line x1="0" y1="200" x2="640" y2="200" stroke="#cfdbe7" stroke-width="1" opacity=".3"/><ellipse cx="316" cy="330" rx="200" ry="12" fill="#aebecf" opacity=".28"/><rect x="457" y="147" width="86" height="118" rx="8" fill="#0A2540" opacity=".13"/><rect x="452" y="140" width="86" height="118" rx="8" fill="#f4f8fb" stroke="#0A2540" stroke-width="3"/><path d="M452 250 v-102 a8 8 0 0 1 8 -8 h29 l-29 118 z" fill="#dceaf7" opacity=".35"/><rect x="464" y="158" width="62" height="14" rx="3" fill="#cfdbe7"/><rect x="464" y="182" width="62" height="14" rx="3" fill="#cfdbe7"/><rect x="464" y="206" width="62" height="14" rx="3" fill="#cfdbe7"/><rect x="464" y="230" width="62" height="14" rx="3" fill="#cfdbe7"/><rect x="468" y="160" width="8" height="10" rx="2" fill="#16395c"/><rect x="482" y="160" width="8" height="10" rx="2" fill="#16395c"/><rect x="496" y="160" width="8" height="10" rx="2" fill="#16395c"/><rect x="510" y="160" width="8" height="10" rx="2" fill="#16395c"/><rect x="468" y="184" width="8" height="10" rx="2" fill="#16395c"/><rect x="482" y="184" width="8" height="10" rx="2" fill="#16395c"/><rect x="496" y="184" width="8" height="10" rx="2" fill="#16395c"/><rect x="510" y="184" width="8" height="10" rx="2" fill="#16395c"/><rect x="468" y="208" width="8" height="10" rx="2" fill="#16395c"/><rect x="482" y="208" width="8" height="10" rx="2" fill="#16395c"/><rect x="496" y="208" width="8" height="10" rx="2" fill="#16395c"/><rect x="510" y="208" width="8" height="10" rx="2" fill="#16395c"/><rect x="468" y="232" width="8" height="10" rx="2" fill="#16395c"/><rect x="482" y="232" width="8" height="10" rx="2" fill="#16395c"/><rect x="496" y="232" width="8" height="10" rx="2" fill="#16395c"/><rect x="510" y="232" width="8" height="10" rx="2" fill="#16395c"/><rect x="171" y="99" width="176" height="224" rx="18" fill="#0A2540" opacity=".13"/><rect x="166" y="92" width="176" height="224" rx="18" fill="#ffffff" stroke="#0A2540" stroke-width="3"/><path d="M166 298 v-188 a18 18 0 0 1 18 -18 h60 l-60 224 z" fill="#dceaf7" opacity=".35"/><rect x="190" y="120" width="128" height="92" rx="8" fill="#16395c"/><rect x="202" y="140" width="15" height="54" rx="3" fill="#ffb020"/><rect x="225" y="140" width="15" height="54" rx="3" fill="#ffb020"/><rect x="248" y="140" width="15" height="54" rx="3" fill="#ffb020"/><rect x="271" y="140" width="15" height="54" rx="3" fill="#ffb020"/><rect x="294" y="140" width="15" height="54" rx="3" fill="#31527a"/><rect x="190" y="232" width="128" height="10" rx="5" fill="#cfdbe7"/><rect x="190" y="252" width="82" height="10" rx="5" fill="#cfdbe7" opacity=".6"/><circle cx="300" cy="288" r="6" fill="#1f9d55"/><circle cx="300" cy="288" r="12" fill="#1f9d55" opacity=".22"/><path d="M342 196 h64 q12 0 12 12 v-24" stroke="#ffb020" stroke-width="4" fill="none" stroke-linecap="round" stroke-dasharray="8 9"/><circle cx="568" cy="60" r="35" fill="#ffb020" opacity=".12"/><circle cx="568" cy="60" r="20" fill="#ffb020"/><line x1="596.6" y1="71.9" x2="607.7" y2="76.5" stroke="#ffb020" stroke-width="5" stroke-linecap="round" opacity=".6"/><line x1="579.9" y1="88.6" x2="584.5" y2="99.7" stroke="#ffb020" stroke-width="5" stroke-linecap="round" opacity=".6"/><line x1="556.1" y1="88.6" x2="551.5" y2="99.7" stroke="#ffb020" stroke-width="5" stroke-linecap="round" opacity=".6"/><line x1="539.4" y1="71.9" x2="528.3" y2="76.5" stroke="#ffb020" stroke-width="5" stroke-linecap="round" opacity=".6"/><line x1="539.4" y1="48.1" x2="528.3" y2="43.5" stroke="#ffb020" stroke-width="5" stroke-linecap="round" opacity=".6"/><line x1="556.1" y1="31.4" x2="551.5" y2="20.3" stroke="#ffb020" stroke-width="5" stroke-linecap="round" opacity=".6"/><line x1="579.9" y1="31.4" x2="584.5" y2="20.3" stroke="#ffb020" stroke-width="5" stroke-linecap="round" opacity=".6"/><line x1="596.6" y1="48.1" x2="607.7" y2="43.5" stroke="#ffb020" stroke-width="5" stroke-linecap="round" opacity=".6"/></svg>
